<svg xmlns="http://www.w3.org/2000/svg"width="91" height="31" viewBox="0 0 91 31" fill="none">
<!-- <g transform="translate(0.000000,1178.000000) scale(0.100000,-0.100000)"
fill="#000000" stroke="none"> -->
<path d="M9260 11770 c-611 -75 -1145 -423 -1654 -1077 -70 -90 -275 -388
-321 -468 -10 -16 -17 -15 -110 14 -581 179 -1227 176 -1785 -9 -85 -28 -160
-53 -167 -56 -6 -3 -40 39 -77 95 -516 783 -1136 1249 -1790 1346 -207 30
-484 17 -705 -35 -251 -59 -632 -223 -714 -307 -120 -122 -34 -318 137 -314
40 1 73 12 166 60 199 102 358 161 545 203 135 30 464 33 593 5 515 -111 976
-477 1426 -1129 l67 -97 -78 -52 c-122 -82 -191 -137 -287 -229 -239 -229
-387 -484 -452 -775 -24 -110 -29 -341 -10 -460 21 -123 74 -285 129 -390 l42
-80 147 -75 c81 -41 148 -77 148 -80 0 -3 -55 -42 -122 -87 -148 -98 -328
-241 -461 -365 l-98 -91 -107 51 c-470 222 -879 356 -1282 419 -163 26 -563
25 -705 -1 -618 -112 -1057 -489 -1340 -1151 -50 -118 -109 -287 -120 -347
-19 -101 67 -198 176 -198 91 0 142 48 184 175 129 391 306 686 527 876 503
433 1251 423 2274 -30 l142 -63 -92 -117 c-105 -134 -247 -342 -328 -481 -82
-140 -209 -398 -264 -538 -36 -91 -53 -121 -64 -118 -299 85 -450 118 -646
141 -161 19 -426 19 -566 0 -709 -94 -1215 -561 -1489 -1375 -23 -67 -39 -133
-39 -160 1 -155 196 -228 302 -114 16 18 44 79 73 163 191 548 470 889 856
1046 325 131 715 138 1184 20 212 -54 229 -60 220 -83 -15 -38 -76 -305 -99
-432 -42 -228 -76 -575 -76 -770 0 -73 -2 -81 -17 -76 -40 16 -319 67 -438 81
-162 19 -417 19 -556 0 -539 -71 -949 -345 -1252 -835 -96 -156 -245 -503
-279 -650 -27 -117 54 -220 174 -220 84 0 141 49 173 150 171 534 438 895 795
1075 354 177 813 190 1361 38 l57 -16 6 -71 c72 -767 369 -1553 819 -2171 512
-701 1228 -1216 2009 -1444 209 -61 292 -76 336 -63 23 7 154 104 342 252 168
132 312 240 320 240 8 0 127 -112 265 -249 292 -291 281 -284 422 -257 1172
228 2203 1074 2748 2253 155 335 273 710 335 1058 37 207 26 186 100 207 451
130 887 144 1207 39 354 -116 621 -369 821 -779 37 -76 90 -203 117 -282 54
-160 80 -199 150 -226 83 -31 174 7 214 88 30 62 27 88 -23 234 -112 327 -252
588 -424 791 -457 541 -1124 718 -1971 524 l-118 -27 5 182 c11 423 -55 948
-174 1360 -5 20 0 23 45 33 197 42 530 54 708 26 463 -73 799 -336 1036 -810
46 -94 86 -193 174 -433 30 -84 137 -131 219 -97 76 32 114 87 114 169 0 75
-104 353 -206 552 -403 783 -1102 1111 -2032 953 -64 -11 -131 -22 -148 -25
l-30 -6 -49 118 c-56 140 -184 400 -263 534 -30 52 -102 164 -159 249 -57 84
-103 154 -101 156 10 8 240 93 341 126 559 180 1042 196 1413 45 385 -157 671
-503 854 -1031 21 -62 46 -127 54 -144 42 -81 155 -115 234 -71 93 52 113 132
67 271 -248 756 -679 1215 -1288 1373 -270 70 -628 76 -962 15 -250 -46 -538
-131 -815 -242 l-135 -55 -170 167 c-243 238 -509 444 -758 588 l-68 40 133
81 133 81 38 93 c20 51 49 138 64 193 24 92 27 116 27 295 0 169 -3 208 -22
290 -65 269 -195 493 -417 716 -138 138 -238 218 -385 306 -49 29 -90 57 -90
62 0 13 143 228 235 352 199 268 439 513 654 668 507 365 1050 422 1626 171
55 -24 145 -67 200 -95 92 -49 103 -52 152 -47 134 14 212 153 153 271 -28 55
-55 74 -209 151 -235 118 -461 194 -681 230 -115 19 -397 27 -500 15z m591
-8531 c-35 -156 -73 -301 -78 -296 -1 2 15 80 36 173 22 93 45 196 52 229 7
33 14 53 16 44 2 -9 -9 -77 -26 -150z m-3354 -511 c-3 -7 -5 -2 -5 12 0 14 2
19 5 13 2 -7 2 -19 0 -25z"/>
</g>
</svg>
